<?xml version="1.0" encoding="UTF-8" standalone="no"?><!DOCTYPE svg PUBLIC "-//W3C//DTD SVG 1.1//EN" "http://www.w3.org/Graphics/SVG/1.1/DTD/svg11.dtd"><svg width="100%" height="100%" viewBox="0 0 32 256" version="1.1" xmlns="http://www.w3.org/2000/svg" xmlns:xlink="http://www.w3.org/1999/xlink" xml:space="preserve" xmlns:serif="http://www.serif.com/" style="fill-rule:evenodd;clip-rule:evenodd;stroke-linejoin:round;stroke-miterlimit:2;"><path d="M32,16c0,-4.243 -1.686,-8.313 -4.686,-11.314c-3.001,-3 -7.071,-4.686 -11.314,-4.686l-0,0c-4.243,0 -8.313,1.686 -11.314,4.686c-3,3.001 -4.686,7.071 -4.686,11.314l0,224c-0,4.243 1.686,8.313 4.686,11.314c3.001,3 7.071,4.686 11.314,4.686l0,0c4.243,-0 8.313,-1.686 11.314,-4.686c3,-3.001 4.686,-7.071 4.686,-11.314l0,-224Z" style="fill:#ebebeb;"/></svg>